/* XPM */
static char * bitcoin32_xpm[] = {
"32 32 133 2",
"  	c None",
". 	c #7B2732",
"+ 	c #792732",
"@ 	c #802732",
"# 	c #D92131",
"$ 	c #962632",
"% 	c #762832",
"& 	c #78242F",
"* 	c #79242F",
"= 	c #72242F",
"- 	c #9B212E",
"; 	c #CD1E2D",
"> 	c #74242F",
", 	c #792530",
"' 	c #722630",
") 	c #C0202F",
"! 	c #9E222F",
"~ 	c #732530",
"{ 	c #772530",
"] 	c #842430",
"^ 	c #C6202F",
"/ 	c #7A2530",
"( 	c #782530",
"_ 	c #A6222F",
": 	c #A7222F",
"< 	c #742530",
"[ 	c #822430",
"} 	c #B7212F",
"| 	c #7F2530",
"1 	c #AA222F",
"2 	c #A3222F",
"3 	c #7B2530",
"4 	c #702630",
"5 	c #6F2630",
"6 	c #B2212F",
"7 	c #AC222F",
"8 	c #862430",
"9 	c #B4212F",
"0 	c #99232F",
"a 	c #9A2330",
"b 	c #AD212F",
"c 	c #D01F2F",
"d 	c #D51F2F",
"e 	c #7C2530",
"f 	c #BA212F",
"g 	c #D61F2E",
"h 	c #802430",
"i 	c #762530",
"j 	c #712630",
"k 	c #76202C",
"l 	c #81242F",
"m 	c #932935",
"n 	c #A0222F",
"o 	c #D71E2F",
"p 	c #872430",
"q 	c #731B26",
"r 	c #712530",
"s 	c #851F2B",
"t 	c #E45560",
"u 	c #F98C93",
"v 	c #F12939",
"w 	c #F21A2B",
"x 	c #942330",
"y 	c #BA202F",
"z 	c #DB1E2E",
"A 	c #CD1F2F",
"B 	c #DC1E2E",
"C 	c #EF2031",
"D 	c #ED1E2E",
"E 	c #F41D2E",
"F 	c #BD202F",
"G 	c #EB1D2E",
"H 	c #EF1C2E",
"I 	c #E31D2E",
"J 	c #752530",
"K 	c #A2222F",
"L 	c #D61E2E",
"M 	c #6E2630",
"N 	c #962330",
"O 	c #B17F86",
"P 	c #7D2530",
"Q 	c #DE1E2E",
"R 	c #E21E2E",
"S 	c #9A232F",
"T 	c #722530",
"U 	c #802530",
"V 	c #8B2430",
"W 	c #7E2530",
"X 	c #852430",
"Y 	c #832530",
"Z 	c #741B26",
"` 	c #E31E2E",
" .	c #F31C2E",
"..	c #8A2430",
"+.	c #892430",
"@.	c #952430",
"#.	c #982330",
"$.	c #912330",
"%.	c #8F2430",
"&.	c #952330",
"*.	c #8D2430",
"=.	c #902430",
"-.	c #832430",
";.	c #801A26",
">.	c #AF8086",
",.	c #A8222F",
"'.	c #F31D2E",
").	c #9D232F",
"!.	c #812530",
"~.	c #882430",
"{.	c #8C2430",
"].	c #8E2430",
"^.	c #922330",
"/.	c #7F1A26",
"(.	c #E71D2E",
"_.	c #F91C2E",
":.	c #852530",
"<.	c #C91F2F",
"[.	c #CB1F2F",
"}.	c #842530",
"|.	c #942430",
"1.	c #D51F2E",
"2.	c #E01E2E",
"3.	c #732630",
"4.	c #CA1F2F",
"5.	c #CF1F2F",
"6.	c #AB222F",
"7.	c #CE1F2F",
"8.	c #D31F2F",
"9.	c #B8212F",
"0.	c #A4222F",
"a.	c #741D28",
"b.	c #A0646C",
"                                                                ",
"                        . . + @ # $ % . .                       ",
"                  & & & & & * = - ; > & & & &                   ",
"              , , , , , , , , , ' ) ! ~ , , , , ,               ",
"            , , , , , , , , , , { ] ^ / ( , , , , ,             ",
"          , , , , , , , , , , , , ' _ : < , , , , , ,           ",
"        , , , , , , , , ( ~ ~ ( , { [ } < , , , , , , ,         ",
"      , , , , , , , , ( | 1 2 3 4 5 6 7 ~ , , , , , , , ,       ",
"      , , , , , , , , { 8 9 0 a b c d e ( , , , , , , , ,       ",
"    , , , , , , , , , , { 5 f g ) 6 h i , , , , , , , , , ,     ",
"    , , , , , , , , , { = | c { j ' { , , , , , , , , , , ,     ",
"  k , , , , , , , , i l m n o p { , , , , , , , , , , , , , q   ",
"  k , , , , ( < { r s t u v w x < , , , , , , , , , , , , , q   ",
"  k , , , ( , y z A B C D E y i , , , , , , , , , , , , , , q   ",
"  k , , , ~ n F 0 A G H I 1 J ( , , , , , , , , , , , , , , q   ",
"  k , , , ~ K L J M 8 N h ~ , ( ( , ( ( , ( , ( ( ( , ( , ( q O ",
"  k , , , ( P Q R S 4 T U V 8 e W e P X Y e 3 P e | W | / | Z O ",
"  k , , , , J X `  .} i ..{ 3 ..+.@.+.#.$.%.&.*.=.%.x -.&.*.;.>.",
"  k , , , , , 5 ,.'.E ).!.p ~.....+.| %.*.{.=.=.].^.x ] ^.P /.  ",
"  k , , , , , < U (._.7 j | e e W 3 ..+.!.] !.:.[ e , | / , Z   ",
"  k , , , , i U <.(.[.U { ( , , { ] -.~ p }.&.|...P ( ( , , q   ",
"    , , , ( / 1.) [ i { , , , , , P ..X V 8 x p !.| ( , , , q   ",
"    , , , ~ n 2.{ J , , , , , , , ( 3 W , W , , / / , , , ,     ",
"    , , , 3.4.F j , , , , , , , , , , ( , ( , , , , , , , ,     ",
"      , , ~ 5.6.' , , , , , , , , , , , , , , , , , , , ,       ",
"        , J 7.&.J , , , , , , , , , , , , , , , , , , , ,       ",
"          W 8.| ( , , , , , , , , , , , , , , , , , , ,         ",
"          9.0.~ , , , , , , , , , , , , , , , , , , ,           ",
"              { , , , , , , , , , , , , , , , , , ,             ",
"                , , , , , , , , , , , , , , , ,                 ",
"                    a.a.a.a.a.a.a.a.a.a.a.a.                    ",
"                          b.b.b.b.b.b.                          "};
