/* XPM */
static char * bitcoin16_xpm[] = {
"16 16 122 2",
"  	c None",
". 	c #595D5C",
"+ 	c #6D7271",
"@ 	c #766E6F",
"# 	c #776F70",
"$ 	c #585B5B",
"% 	c #5B5F5E",
"& 	c #726264",
"* 	c #82464E",
"= 	c #7C2631",
"- 	c #75202C",
"; 	c #B51C2A",
"> 	c #7A2933",
", 	c #854A52",
"' 	c #736668",
") 	c #5A5D5D",
"! 	c #5F6363",
"~ 	c #7C4A51",
"{ 	c #78202C",
"] 	c #792530",
"^ 	c #892430",
"/ 	c #922330",
"( 	c #805359",
"_ 	c #5E6362",
": 	c #5C6160",
"< 	c #7B464C",
"[ 	c #79242F",
"} 	c #772530",
"| 	c #782530",
"1 	c #732530",
"2 	c #A1222F",
"3 	c #78232E",
"4 	c #7D4F55",
"5 	c #5B5E5E",
"6 	c #6E585B",
"7 	c #79222D",
"8 	c #932330",
"9 	c #B5212F",
"0 	c #BB212F",
"a 	c #8C2430",
"b 	c #78212C",
"c 	c #6E5D5F",
"d 	c #5B6161",
"e 	c #7C3740",
"f 	c #76242F",
"g 	c #7D212C",
"h 	c #A8222F",
"i 	c #742530",
"j 	c #7E3F47",
"k 	c #6A6767",
"l 	c #79202C",
"m 	c #812430",
"n 	c #AA222F",
"o 	c #CB2B39",
"p 	c #F94251",
"q 	c #A4222F",
"r 	c #7A232E",
"s 	c #676A69",
"t 	c #6D5B5D",
"u 	c #AF212F",
"v 	c #862430",
"w 	c #B4212F",
"x 	c #972330",
"y 	c #762530",
"z 	c #78212D",
"A 	c #6D6163",
"B 	c #6C5A5D",
"C 	c #7F2530",
"D 	c #E01E2E",
"E 	c #902330",
"F 	c #852430",
"G 	c #832530",
"H 	c #882430",
"I 	c #902430",
"J 	c #8A2430",
"K 	c #8F2430",
"L 	c #872530",
"M 	c #83212D",
"N 	c #6B6163",
"O 	c #696666",
"P 	c #79212C",
"Q 	c #AD222F",
"R 	c #D41F2E",
"S 	c #7C2530",
"T 	c #802530",
"U 	c #812530",
"V 	c #862530",
"W 	c #822530",
"X 	c #7C232E",
"Y 	c #5A605F",
"Z 	c #B3212F",
"` 	c #7E2530",
" .	c #7D2530",
"..	c #842530",
"+.	c #7D3E47",
"@.	c #6C5658",
"#.	c #77222D",
"$.	c #C2202F",
"%.	c #722630",
"&.	c #6C5B5D",
"*.	c #5B6060",
"=.	c #76444A",
"-.	c #B1202E",
";.	c #7B4C52",
">.	c #5D6160",
",.	c #5C6362",
"'.	c #87474E",
").	c #7D5056",
"!.	c #606463",
"~.	c #5B5F5F",
"{.	c #6D5D60",
"].	c #81444C",
"^.	c #7D2732",
"/.	c #7E2934",
"(.	c #824850",
"_.	c #6F6264",
":.	c #5D605F",
"<.	c #696E6D",
"[.	c #716B6C",
"}.	c #726D6D",
"|.	c #696E6E",
"1.	c #595C5C",
"          . + @ # + $           ",
"      % & * = - ; > , ' )       ",
"    ! ~ { ] ] ] ^ / ] { ( _     ",
"  : < [ ] ] } | 1 2 | ] 3 4 5   ",
"  6 7 ] ] ] 8 9 0 a ] ] ] b c   ",
"d e ] ] ] f g h i ] ] ] ] ] j . ",
"k l ] m n o p q ] ] ] ] ] ] r s ",
"t 7 ] u v w x y | | ] | | | z A ",
"B 7 ] C D E F G H I J J K L M N ",
"O P ] | Q R S T U V v a U W X s ",
"Y e ] / Z ` ] ]  .C H ..T ] +.. ",
"  @.#.$.%.] ] ] ] | | ] ] P &.  ",
"  *.=.-.y ] ] ] ] ] ] ] 3 ;.>.  ",
"    ,.'.P ] ] ] ] ] ] { ).!.    ",
"      ~.{.].^.{ { /.(._.:.      ",
"          $ <.[.}.|.1.          "};
