/* XPM */
static char * bitcoin16_xpm[] = {
"16 16 70 1",
" 	c None",
".	c #B07078",
"+	c #CC6E77",
"@	c #741D29",
"#	c #721D29",
"$	c #A11A28",
"%	c #831C29",
"&	c #792530",
"*	c #772530",
"=	c #762530",
"-	c #7F2530",
";	c #9D232F",
">	c #782530",
",	c #882430",
"'	c #822430",
")	c #7A2530",
"!	c #A3222F",
"~	c #7C2530",
"{	c #751E2A",
"]	c #88232F",
"^	c #AE222F",
"/	c #B5212F",
"(	c #942330",
"_	c #761F2B",
":	c #722530",
"<	c #792A34",
"[	c #982C38",
"}	c #AF212E",
"|	c #9F626A",
"1	c #892430",
"2	c #A4202D",
"3	c #D22F3D",
"4	c #F83847",
"5	c #AB1F2D",
"6	c #732630",
"7	c #924E57",
"8	c #B2212F",
"9	c #A52230",
"0	c #BC1F2D",
"a	c #A51F2C",
"b	c #782630",
"c	c #751F2B",
"d	c #752530",
"e	c #9B2330",
"f	c #CB1F2F",
"g	c #852430",
"h	c #822530",
"i	c #862430",
"j	c #872430",
"k	c #831F2B",
"l	c #964E57",
"m	c #6E2630",
"n	c #CF1F2F",
"o	c #D11F2F",
"p	c #8A2430",
"q	c #8D2430",
"r	c #7F1F2B",
"s	c #954E57",
"t	c #BA212F",
"u	c #932330",
"v	c #832530",
"w	c #802530",
"x	c #BB212F",
"y	c #7D2530",
"z	c #742530",
"A	c #B1212F",
"B	c #992330",
"C	c #75212C",
"D	c #77212C",
"E	c #8B424C",
"       .+       ",
"    @@@#$%#@    ",
"   &&&*=-;>&&   ",
"  &&&>,')!~&&&  ",
" {&&&=]^/(=&&&_ ",
" {)*:<[}==&&&&_ ",
"|{*123456&&&&&_7",
"|{=890ab*>>>>>c7",
"|{defg)hg11i,jkl",
"|{)mno)hg1pqpirs",
" {d(tu=>~viqw>c ",
" {&xyz)&&~~))&_ ",
"  yA=&&&&&&&&&  ",
"   Bd&&&&&&&&&  ",
"    CDDDDDDD    ",
"      EEEE      "};
