/* XPM */
static char * bitcoin32_xpm[] = {
"32 32 250 2",
"  	c None",
". 	c #555555",
"+ 	c #5A5A5A",
"@ 	c #595959",
"# 	c #565656",
"$ 	c #5C5D5D",
"% 	c #6D7070",
"& 	c #868787",
"* 	c #8B7F81",
"= 	c #947A7C",
"- 	c #9F7A7D",
"; 	c #8B8183",
"> 	c #868888",
", 	c #6A6D6D",
"' 	c #545454",
") 	c #8A7D7F",
"! 	c #86575D",
"~ 	c #853A44",
"{ 	c #771F2A",
"] 	c #77202B",
"^ 	c #75212C",
"/ 	c #E4192A",
"( 	c #7F1F2B",
"_ 	c #78202B",
": 	c #88414A",
"< 	c #8C6166",
"[ 	c #8D8586",
"} 	c #646766",
"| 	c #585858",
"1 	c #606262",
"2 	c #86787A",
"3 	c #823F48",
"4 	c #771F2B",
"5 	c #792530",
"6 	c #8C2430",
"7 	c #C8202F",
"8 	c #772530",
"9 	c #79242F",
"0 	c #894D55",
"a 	c #8A8283",
"b 	c #5A5B5B",
"c 	c #5C5C5C",
"d 	c #737575",
"e 	c #825258",
"f 	c #78212C",
"g 	c #C1202F",
"h 	c #882430",
"i 	c #79222D",
"j 	c #8C666B",
"k 	c #6C6F6F",
"l 	c #575656",
"m 	c #777777",
"n 	c #7C3841",
"o 	c #782530",
"p 	c #CD1F2F",
"q 	c #752530",
"r 	c #78222D",
"s 	c #864B53",
"t 	c #727474",
"u 	c #575757",
"v 	c #737574",
"w 	c #7B343D",
"x 	c #A8222F",
"y 	c #8B2430",
"z 	c #78242F",
"A 	c #84474F",
"B 	c #6B6E6D",
"C 	c #5D5D5D",
"D 	c #626464",
"E 	c #7D444B",
"F 	c #782630",
"G 	c #BC212F",
"H 	c #812430",
"I 	c #78232E",
"J 	c #875B61",
"K 	c #595A5A",
"L 	c #80666A",
"M 	c #832430",
"N 	c #DA1E2E",
"O 	c #B5212F",
"P 	c #8A2430",
"Q 	c #B6212F",
"R 	c #CE1F2F",
"S 	c #762530",
"T 	c #837577",
"U 	c #555454",
"V 	c #792934",
"W 	c #732530",
"X 	c #EA1D2E",
"Y 	c #D21F2F",
"Z 	c #BC202F",
"` 	c #803A43",
" .	c #616565",
"..	c #7F6165",
"+.	c #7B2530",
"@.	c #DA1E2F",
"#.	c #702630",
"$.	c #816F71",
"%.	c #5E6161",
"&.	c #7B3841",
"*.	c #76242F",
"=.	c #861C28",
"-.	c #8D2430",
";.	c #DF1E2E",
">.	c #814B52",
",.	c #585959",
"'.	c #6F6F6F",
").	c #79212C",
"!.	c #742530",
"~.	c #EA545F",
"{.	c #FCAEB4",
"].	c #EE1D2E",
"^.	c #F11D2E",
"/.	c #7D2530",
"(.	c #7D2A34",
"_.	c #656968",
":.	c #7A6568",
"<.	c #79232E",
"[.	c #A52230",
"}.	c #E11E2E",
"|.	c #D11F2E",
"1.	c #DE1E2F",
"2.	c #EA182A",
"3.	c #E91527",
"4.	c #EF1C2E",
"5.	c #AA222F",
"6.	c #78202C",
"7.	c #766D6E",
"8.	c #535353",
"9.	c #7E5B60",
"0.	c #872430",
"a.	c #B2212F",
"b.	c #E51E2E",
"c.	c #F01C2E",
"d.	c #E21E2E",
"e.	c #982330",
"f.	c #78222E",
"g.	c #7C6568",
"h.	c #5B5B5B",
"i.	c #7F565C",
"j.	c #EC1D2E",
"k.	c #902430",
"l.	c #7F2530",
"m.	c #7E6166",
"n.	c #7F565B",
"o.	c #A92230",
"p.	c #F31C2E",
"q.	c #C3202F",
"r.	c #862430",
"s.	c #822430",
"t.	c #7A2530",
"u.	c #812530",
"v.	c #7B232E",
"w.	c #7E6165",
"x.	c #7D5B5F",
"y.	c #EB1D2E",
"z.	c #E41D2E",
"A.	c #7C2530",
"B.	c #892430",
"C.	c #A12330",
"D.	c #992330",
"E.	c #932430",
"F.	c #9C2430",
"G.	c #9C2330",
"H.	c #8A212E",
"I.	c #7A6467",
"J.	c #796467",
"K.	c #F01D2E",
"L.	c #B3212F",
"M.	c #882530",
"N.	c #8F2430",
"O.	c #82202C",
"P.	c #746B6C",
"Q.	c #6C6C6C",
"R.	c #D91E2F",
"S.	c #A3222F",
"T.	c #832530",
"U.	c #852430",
"V.	c #7C2A35",
"W.	c #626766",
"X.	c #5C5F5E",
"Y.	c #842430",
"Z.	c #BF202F",
"`.	c #9E232F",
" +	c #9D2330",
".+	c #565757",
"++	c #7D5F62",
"@+	c #DD1E2E",
"#+	c #9D232F",
"$+	c #852530",
"%+	c #802530",
"&+	c #7D6B6D",
"*+	c #666969",
"=+	c #7A2A35",
"-+	c #732630",
";+	c #813B44",
">+	c #5C5F5F",
",+	c #7D6467",
"'+	c #A22230",
")+	c #D41F2E",
"!+	c #7E7173",
"~+	c #5B5E5D",
"{+	c #7D444C",
"]+	c #9E2230",
"^+	c #B8212F",
"/+	c #875B60",
"(+	c #545555",
"_+	c #5D5C5C",
":+	c #6A6C6B",
"<+	c #7B353E",
"[+	c #9B2330",
"}+	c #85474F",
"|+	c #616564",
"1+	c #656565",
"2+	c #6C6F6E",
"3+	c #BC3541",
"4+	c #74242F",
"5+	c #874B53",
"6+	c #686A6A",
"7+	c #5E5E5E",
"8+	c #666A6A",
"9+	c #825359",
"0+	c #8C656A",
"a+	c #616463",
"b+	c #5F5F5F",
"c+	c #575959",
"d+	c #817375",
"e+	c #834049",
"f+	c #792430",
"g+	c #8A4E56",
"h+	c #837B7C",
"i+	c #535454",
"j+	c #666666",
"k+	c #5D6160",
"l+	c #837678",
"m+	c #88585E",
"n+	c #853B44",
"o+	c #781F2A",
"p+	c #77212C",
"q+	c #89414B",
"r+	c #857D7E",
"s+	c #585A5A",
"t+	c #606463",
"u+	c #7A7B7B",
"v+	c #837779",
"w+	c #867476",
"x+	c #867578",
"y+	c #83797A",
"z+	c #7B7D7D",
"A+	c #626262",
"                          . . + @ . #                           ",
"                    . $ % & * = - ; > , + #                     ",
"                ' , ) ! ~ { ] ^ / ( _ : < [ } '                 ",
"            | 1 2 3 4 5 5 5 5 5 6 7 8 5 9 { 0 a b c             ",
"          ' d e f 5 5 5 5 5 5 5 8 g h 5 5 5 5 i j k l           ",
"        ' m n 9 5 5 5 5 5 5 5 5 5 o p q 5 5 5 5 r s t u         ",
"      | v w 5 5 5 5 5 5 5 5 5 5 5 5 x y 5 5 5 5 5 z A B C       ",
"      D E 5 5 5 5 5 5 5 o F q 5 5 8 G H 5 5 5 5 5 5 I J K       ",
"    . L i 5 5 5 5 5 5 5 M N O q P Q R S 5 5 5 5 5 5 5 f T U     ",
"    k V 5 5 5 5 5 5 5 5 5 W Q X Y Z o 5 5 5 5 5 5 5 5 5 `  .    ",
"  u ..9 5 5 5 5 5 5 5 5 5 +.@.#.S o 5 5 5 5 5 5 5 5 5 5 f $.|   ",
"  %.&.5 5 5 5 5 5 5 5 *.=.-.;.q 5 5 5 5 5 5 5 5 5 5 5 5 5 >.,.  ",
"  '.).5 5 5 5 o !.S *.~.{.].^./.5 5 5 5 5 5 5 5 5 5 5 5 5 (._.  ",
". :.<.5 5 5 o [.}.|.1.2.3.4.5.o 5 5 5 5 5 5 5 5 5 5 5 5 5 6.7.+ ",
"8.9.9 5 5 5 !.|.0.a.b.c.d.e.8 5 5 5 5 5 5 5 5 5 5 5 5 5 5 f.g.@ ",
"h.i.5 5 5 5 W j.k.q W l.W 8 o 5 5 5 5 8 5 5 5 5 5 o 5 5 5 <.m.+ ",
"h.n.5 5 5 5 o o.p.q.5 5 r.h 0.s.l.r./.k.r.t.y +.h u.0./.h v.w.+ ",
"8.x.9 5 5 5 5 S O y.z.A.6 8 8 B.0.-.-.C.6 D.y E.k.F.8 G.5 H.I.@ ",
". J.<.5 5 5 5 5 A.K.X L.u.B.r.y 0.H 6 B.M.6 P N.y 0.P N.o O.P.C ",
"  Q.).5 5 5 5 5 o R.].S.5 o 5 o 5 0.l.T.M U.6 P +.5 o 5 5 V.W.  ",
"  X.&.5 5 5 5 Y.X Z.`.S 5 5 5 5 5 6 q o y 0. +W y 5 5 5 5 >..+  ",
"  # ++9 5 5 !.@+#+8 5 5 5 5 5 5 5 o B.U.Y.$+Y.o %+5 5 5 f &++   ",
"    *+=+5 5 h j.-+5 5 5 5 5 5 5 5 5 5 5 5 5 5 5 5 5 5 5 ;+>+    ",
"    ' ,+i 5 '+)+q 5 5 5 5 5 5 5 5 5 5 5 5 5 5 5 5 5 5 f !+u     ",
"      ~+{+5 ]+^+5 5 5 5 5 5 5 5 5 5 5 5 5 5 5 5 5 5 I /+(+      ",
"      _+:+<+^+[+5 5 5 5 5 5 5 5 5 5 5 5 5 5 5 5 5 z }+|+1+      ",
"        u 2+3+4+5 5 5 5 5 5 5 5 5 5 5 5 5 5 5 5 r 5+6+7+        ",
"          | 8+9+f 5 5 5 5 5 5 5 5 5 5 5 5 5 5 i 0+a+7+          ",
"            b+c+d+e+4 5 5 5 5 5 5 5 5 5 f+{ g+h+i+j+            ",
"                . k+l+m+n+o+] p+p+] _ q+< r+s+|                 ",
"                    @ # t+u+v+w+x+y+z+%.. c                     ",
"                          b+h.c c h.A+                          "};
