/* XPM */
static char * bitcoin64_xpm[] = {
"64 64 229 2",
"  	c None",
". 	c #711824",
"+ 	c #6D1824",
"@ 	c #851723",
"# 	c #EA1022",
"$ 	c #E71022",
"% 	c #7F1724",
"& 	c #6D1924",
"* 	c #792530",
"= 	c #702630",
"- 	c #AA222F",
"; 	c #FB1C2E",
"> 	c #C2202F",
", 	c #712630",
"' 	c #782530",
") 	c #742530",
"! 	c #D21F2F",
"~ 	c #F51D2E",
"{ 	c #8D2430",
"] 	c #8A2430",
"^ 	c #F31C2E",
"/ 	c #CA1F2F",
"( 	c #B2212F",
"_ 	c #F91C2E",
": 	c #93232F",
"< 	c #732530",
"[ 	c #772630",
"} 	c #DF1E2E",
"| 	c #D51E2E",
"1 	c #722530",
"2 	c #94232F",
"3 	c #F71C2E",
"4 	c #9C232F",
"5 	c #C3202F",
"6 	c #E21E2E",
"7 	c #762530",
"8 	c #7E2530",
"9 	c #ED1D2E",
"0 	c #AF212F",
"a 	c #A6222F",
"b 	c #EA1D2E",
"c 	c #7F2530",
"d 	c #772530",
"e 	c #E31E2E",
"f 	c #95232F",
"g 	c #7D2530",
"h 	c #E71D2E",
"i 	c #91232F",
"j 	c #7A2530",
"k 	c #6E2630",
"l 	c #AC222F",
"m 	c #822430",
"n 	c #CC1F2F",
"o 	c #D51F2E",
"p 	c #D21F2E",
"q 	c #932330",
"r 	c #752530",
"s 	c #722630",
"t 	c #A2222F",
"u 	c #DC1E2E",
"v 	c #A7222F",
"w 	c #6F2630",
"x 	c #892430",
"y 	c #B7212F",
"z 	c #EF1D2E",
"A 	c #852430",
"B 	c #7B2530",
"C 	c #832430",
"D 	c #6D2630",
"E 	c #952330",
"F 	c #BA212F",
"G 	c #EE1D2E",
"H 	c #F11C2E",
"I 	c #CE1F2F",
"J 	c #F81C2E",
"K 	c #F31D2E",
"L 	c #EB1D2E",
"M 	c #E51D2E",
"N 	c #D31E2F",
"O 	c #942330",
"P 	c #712530",
"Q 	c #C61F2F",
"R 	c #CD1F2F",
"S 	c #9E222F",
"T 	c #8C2430",
"U 	c #7F2430",
"V 	c #802430",
"W 	c #EC1D2E",
"X 	c #D31F2F",
"Y 	c #812430",
"Z 	c #B6212F",
"` 	c #742630",
" .	c #D41F2E",
"..	c #732630",
"+.	c #75242F",
"@.	c #941725",
"#.	c #A51421",
"$.	c #AC1321",
"%.	c #BA1E2C",
"&.	c #DD1E2E",
"*.	c #F41C2E",
"=.	c #9D232F",
"-.	c #78232E",
";.	c #76232E",
">.	c #C52533",
",.	c #FA6F78",
"'.	c #FFBBBF",
").	c #FFA8AE",
"!.	c #F32D3C",
"~.	c #F1192A",
"{.	c #BE212F",
"].	c #692630",
"^.	c #A81B2A",
"/.	c #F93F4D",
"(.	c #F5979C",
"_.	c #F49499",
":.	c #F48F95",
"<.	c #EC3744",
"[.	c #EA182A",
"}.	c #F21C2E",
"|.	c #9A232F",
"1.	c #A9222F",
"2.	c #BD202F",
"3.	c #A5222F",
"4.	c #B3212F",
"5.	c #E11E2F",
"6.	c #ED192A",
"7.	c #E90E20",
"8.	c #E90E1F",
"9.	c #EA192B",
"0.	c #EA1E2F",
"a.	c #F51C2E",
"b.	c #C0202F",
"c.	c #D81E2E",
"d.	c #FF1C2E",
"e.	c #C7202F",
"f.	c #7B2833",
"g.	c #AE222F",
"h.	c #E41D2E",
"i.	c #AC212F",
"j.	c #CB1F2F",
"k.	c #F21D2E",
"l.	c #F11D2E",
"m.	c #F01D2E",
"n.	c #B5212F",
"o.	c #D01F2F",
"p.	c #D61E2E",
"q.	c #6A2630",
"r.	c #C4202F",
"s.	c #E41E2E",
"t.	c #912330",
"u.	c #AE7B82",
"v.	c #F61C2E",
"w.	c #96232F",
"x.	c #98232F",
"y.	c #B0212F",
"z.	c #AD212F",
"A.	c #8F242F",
"B.	c #B1212F",
"C.	c #8B2430",
"D.	c #F01C2E",
"E.	c #902430",
"F.	c #962330",
"G.	c #802530",
"H.	c #882430",
"I.	c #AB222F",
"J.	c #DB1E2E",
"K.	c #872430",
"L.	c #922430",
"M.	c #842430",
"N.	c #7C2530",
"O.	c #812530",
"P.	c #AF222F",
"Q.	c #B8212F",
"R.	c #922330",
"S.	c #992330",
"T.	c #932430",
"U.	c #A4232F",
"V.	c #972330",
"W.	c #AE212F",
"X.	c #822530",
"Y.	c #8E2430",
"Z.	c #99232F",
"`.	c #9B2330",
" +	c #982330",
".+	c #942430",
"++	c #91242F",
"@+	c #A12230",
"#+	c #C5202F",
"$+	c #9D2330",
"%+	c #6E2530",
"&+	c #A0232F",
"*+	c #9A2330",
"=+	c #8F2430",
"-+	c #9F222F",
";+	c #912430",
">+	c #A52230",
",+	c #702530",
"'+	c #7D232E",
")+	c #E81D2E",
"!+	c #832530",
"~+	c #A1232F",
"{+	c #90232F",
"]+	c #902330",
"^+	c #9D222F",
"/+	c #A0222F",
"(+	c #C6202F",
"_+	c #D91F2E",
":+	c #8A242F",
"<+	c #92242F",
"[+	c #7C232E",
"}+	c #962430",
"|+	c #BE202F",
"1+	c #93242F",
"2+	c #A22230",
"3+	c #E51E2E",
"4+	c #D11F2F",
"5+	c #9C2330",
"6+	c #6F2530",
"7+	c #94242F",
"8+	c #A02230",
"9+	c #9B232F",
"0+	c #E01E2E",
"a+	c #752630",
"b+	c #B4212F",
"c+	c #A3222F",
"d+	c #B9212F",
"e+	c #862430",
"f+	c #721A26",
"                                                                                                                                ",
"                                                                                                                                ",
"                                                  . . . . . + @ # $ % & . . .                                                   ",
"                                            * * * * * * * * * = - ; > , * * * * * * *                                           ",
"                                      * * * * * * * * * * * * ' ) ! ~ { ) * * * * * * * *                                       ",
"                                  * * * * * * * * * * * * * * * ) ] ^ / , * * * * * * * * * *                                   ",
"                                * * * * * * * * * * * * * * * * * = ( _ : < * * * * * * * * * * *                               ",
"                            * * * * * * * * * * * * * * * * * * * ' [ } | < * * * * * * * * * * * *                             ",
"                          * * * * * * * * * * * * * * * * * * * * * 1 2 3 4 1 * * * * * * * * * * * * *                         ",
"                        * * * * * * * * * * * * * * * * * * * * * * * = 5 6 [ ' * * * * * * * * * * * * *                       ",
"                      * * * * * * * * * * * * * * * * * * * * * * * * 7 8 9 0 , * * * * * * * * * * * * * *                     ",
"                    * * * * * * * * * * * * * * * * * * * * * * * * * * = a b c d * * * * * * * * * * * * * *                   ",
"                  * * * * * * * * * * * * * * * * * * * * * * * * * * * ' d e f ) * * * * * * * * * * * * * * *                 ",
"                * * * * * * * * * * * * * * * * * * * * * * * * * * * * d g h i ) * * * * * * * * * * * * * * * *               ",
"              * * * * * * * * * * * * * * * * * * d < ) 1 , 7 j * * * * k l 9 c d * * * * * * * * * * * * * * * *               ",
"              * * * * * * * * * * * * * * * * * d m n o p n q r * ' r k f ^ > , * * * * * * * * * * * * * * * * * *             ",
"            * * * * * * * * * * * * * * * * * * s t ^ u > v g w 1 ' x y z 9 A r * * * * * * * * * * * * * * * * * * *           ",
"          * * * * * * * * * * * * * * * * * * * * B C 7 D k E F n u G _ H 4 , * * * * * * * * * * * * * * * * * * * *           ",
"          * * * * * * * * * * * * * * * * * * * * ' 7 7 c I J ; K L M N O P * * * * * * * * * * * * * * * * * * * * * *         ",
"        * * * * * * * * * * * * * * * * * * * * * * * < Q ; R S T C U r < * * * * * * * * * * * * * * * * * * * * * * *         ",
"        * * * * * * * * * * * * * * * * * * * * * * d V W X s , r 7 d * * * * * * * * * * * * * * * * * * * * * * * * * *       ",
"      * * * * * * * * * * * * * * * * * * * * * * * d Y z Z w * * * * * * * * * * * * * * * * * * * * * * * * * * * * * *       ",
"      * * * * * * * * * * * * * * * * * * * * ` , , , k |  ...* * * * * * * * * * * * * * * * * * * * * * * * * * * * * *       ",
"      * * * * * * * * * * * * * * * * * * d +.@.#.$.%.5 &.*.=.< * * * * * * * * * * * * * * * * * * * * * * * * * * * * * -.    ",
"    . * * * * * * * * * * * * * * * * * ' ;.>.,.'.).!.~.W ^ {.= * * * * * * * * * * * * * * * * * * * * * * * * * * * * * -.    ",
"    . * * * * * * * * * * * ' , , , , s ].^./.(._.:.<.[.L }.|.< * * * * * * * * * * * * * * * * * * * * * * * * * * * * * -.    ",
"    . * * * * * * * * * * 7 B 1.2.5 v 3.4.5.6.7.8.8.9.0.a.b.1 * * * * * * * * * * * * * * * * * * * * * * * * * * * * * * -.    ",
"    . * * * * * * * * * d j c.d.; 3 ^ }.^ W b b b b L *.e.7 d * * * * * * * * * * * * * * * * * * * * * * * * * * * * * * -.f.  ",
"    . * * * * * * * * * , g.h.i.4.j.L k.W b b b b l.m.n.) d * * * * * * * * * * * * * * * * * * * * * * * * * * * * * * * -.f.  ",
"    . * * * * * * * * * s o.p.q., , T r.s.l.^ ^ G o.t., ' * * * * * * * * * * * * * * * * * * * * * * * * * * * * * * * * -.f.  ",
"  u.. * * * * * * * * * ..n v.w.w j r , 8 x.y.z.A.) < * * * * * * * * * * * * * * * * * * * * * * * * * * * * * * * * * * -.f.  ",
"  u.. * * * * * * * * * , B.3 } T k ' j d < , , r * 7 r r ' * * * * * * * * * ' 7 * * * * * * * * * * * d * * * * * * * * -.f.  ",
"  u.. * * * * * * * * * r C.z D.L 4.* s * * * * ' * E.F.q 8 ' ' d * * ' d * d G.{ * d * * ' d * * ' ' * H.' ' ' * * ' d * -.f.  ",
"  u.. * * * * * * * * * * s I.^ 9 *.J.E = ' * * ' 4 C.c K.L.) c M.d d N.A ' j =.Y B A j r 8 A ' 7 O.C d K.7 O.C d d g A ' -.f.  ",
"  u.. * * * * * * * * * * * , P.k.b z H Q.r d d H.R.1 ' d ) T S.T.O L.U.L.V.t.W.X.V.Y.Z.H.`.t. +] V.V..+Y.Y. +E ++V.@+q  +;.f.  ",
"    . * * * * * * * * * * * ' w Z H b L a.#+) r T ] 7 * * * $+r P T a M.%+.+Y.i F.R.m  +&+*+A M.=+ +A A -+*+< 1 ;+>+c ,+ +'+f.  ",
"    . * * * * * * * * * * * * 7 G.)+W b b a.1.= m $+) r d !+$+r P { ~+V ) T.Y.{+F.{ Y ] E.A x =.T C ]+ +^+`.< 1 L./+g r F.'+f.  ",
"    . * * * * * * * * * * * * * , (+l.b b z _+d r { `.i *+C.x *+O E { m ) ] K.:+8 S.=+ +C.`.=+S.;+Z.O E ]+=+ +E <+=+8 r t.[+f.  ",
"    . * * * * * * * * * * * * * < |.}.b b 9 6 g ' 7 N.M.g 7 7 c M.d ' d g F.F.}+g N.C d < { ] d < O.M.d * 7 O.!+7 * * * * -.f.  ",
"    . * * * * * * * * * * * * j ) 1 J.G b l.X r * * * d * * * ' d * ' B =.M.j A Y.) C H.d m * G.] * 7 * * * ' ' * * * * * -.    ",
"    . * * * * * * * * * * * * s H.|+s.G l.z 2 ) * * * * * * * * * * 7 { T ) * d < 1+E t.E =+&+2+{ `.* * * * * * * * * * * -.    ",
"      * * * * * * * * * * * , Z.b ; z 3+4+q s * * * * * * * * * * * r t.H.7 * ' g 5+1 P ;+@+=.O.6+V.X.' * * * * * * * * * -.    ",
"      * * * * * * * * * * 1 7+G ^ 2.T c ) ) * * * * * * * * * * * * d C 5+r r j K.5+r 1 E 8+Z.G.) V.O.' * * * * * * * * *       ",
"      * * * * * * * * * 7 X.M v.Z D ) d * * * * * * * * * * * * * * * 7 { 9+T.`.M.] *+V.A.C.1+8 r E.c ' * * * * * * * * *       ",
"        * * * * * * * * , v 3 0+* d * * * * * * * * * * * * * * * * * * 7 j c * d 7 g c 7 ' ' * * * N.* * * * * * * * * *       ",
"        * * * * * * * * a+4+J b+= * * * * * * * * * * * * * * * * * * * * * ' * * * * ' * * * * * j B * * * * * * * * *         ",
"          * * * * * * r Y.z G A.) * * * * * * * * * * * * * * * * * * * * * * * * * * * * * * * * * * * * * * * * * * *         ",
"          * * * * * * , v a.0+B ' * * * * * * * * * * * * * * * * * * * * * * * * * * * * * * * * * * * * * * * * * *           ",
"            * * * * * , z.v.} j ' * * * * * * * * * * * * * * * * * * * * * * * * * * * * * * * * * * * * * * * * * *           ",
"            * * * * * < =.J r.s * * * * * * * * * * * * * * * * * * * * * * * * * * * * * * * * * * * * * * * * * *             ",
"              * * * * s c+; I., * * * * * * * * * * * * * * * * * * * * * * * * * * * * * * * * * * * * * * * * *               ",
"                * * * , d+_ Z.< * * * * * * * * * * * * * * * * * * * * * * * * * * * * * * * * * * * * * * * * *               ",
"                  * * ) X W Y d * * * * * * * * * * * * * * * * * * * * * * * * * * * * * * * * * * * * * * * *                 ",
"                    7 m m.5 , * * * * * * * * * * * * * * * * * * * * * * * * * * * * * * * * * * * * * * * *                   ",
"                      1.k.e+r * * * * * * * * * * * * * * * * * * * * * * * * * * * * * * * * * * * * * * *                     ",
"                      h /+, * * * * * * * * * * * * * * * * * * * * * * * * * * * * * * * * * * * * * * *                       ",
"                          d * * * * * * * * * * * * * * * * * * * * * * * * * * * * * * * * * * * * * *                         ",
"                            * * * * * * * * * * * * * * * * * * * * * * * * * * * * * * * * * * * *                             ",
"                              * * * * * * * * * * * * * * * * * * * * * * * * * * * * * * * * * *                               ",
"                                  * * * * * * * * * * * * * * * * * * * * * * * * * * * * * *                                   ",
"                                      * * * * * * * * * * * * * * * * * * * * * * * * * *                                       ",
"                                          * * * * * * * * * * * * * * * * * * * * * *                                           ",
"                                                  f+f+f+f+f+f+f+f+f+f+f+f+f+f+f+                                                ",
"                                                                                                                                "};
