/* XPM */
static char * bitcoin64_xpm[] = {
"64 64 460 2",
"  	c None",
". 	c #6B6B6B",
"+ 	c #707070",
"@ 	c #6D6D6D",
"# 	c #717171",
"$ 	c #626262",
"% 	c #525252",
"& 	c #4B4B4B",
"* 	c #474747",
"= 	c #494949",
"- 	c #4A4A4A",
"; 	c #4D4D4D",
"> 	c #4E4E4E",
", 	c #4C4C4C",
"' 	c #484848",
") 	c #555555",
"! 	c #646464",
"~ 	c #727272",
"{ 	c #5B5B5B",
"] 	c #535353",
"^ 	c #606060",
"/ 	c #6E6E6E",
"( 	c #787878",
"_ 	c #7A7A7A",
": 	c #7B7B7B",
"< 	c #7E7E7E",
"[ 	c #767676",
"} 	c #6C6C6C",
"| 	c #5C5C5C",
"1 	c #505050",
"2 	c #5E5E5E",
"3 	c #737373",
"4 	c #696969",
"5 	c #4F4F4F",
"6 	c #575757",
"7 	c #7C7C7C",
"8 	c #858888",
"9 	c #9A9D9D",
"0 	c #908586",
"a 	c #998184",
"b 	c #927176",
"c 	c #8F696E",
"d 	c #B86A71",
"e 	c #CE6972",
"f 	c #AC6A70",
"g 	c #95767A",
"h 	c #9D888B",
"i 	c #948D8E",
"j 	c #9BA0A0",
"k 	c #848787",
"l 	c #797979",
"m 	c #676767",
"n 	c #545454",
"o 	c #636363",
"p 	c #808181",
"q 	c #8D908F",
"r 	c #927E80",
"s 	c #94656B",
"t 	c #8B454E",
"u 	c #77202C",
"v 	c #761F2A",
"w 	c #77212C",
"x 	c #78232E",
"y 	c #79242F",
"z 	c #7D2530",
"A 	c #EC1D2E",
"B 	c #E71C2D",
"C 	c #75232E",
"D 	c #77202B",
"E 	c #761E29",
"F 	c #7A2631",
"G 	c #92515A",
"H 	c #9C7378",
"I 	c #9D8F91",
"J 	c #909594",
"K 	c #757575",
"L 	c #565656",
"M 	c #818584",
"N 	c #8E8284",
"O 	c #905D63",
"P 	c #7D2934",
"Q 	c #792530",
"R 	c #A4222F",
"S 	c #ED1D2E",
"T 	c #AF212F",
"U 	c #782530",
"V 	c #751E29",
"W 	c #833640",
"X 	c #9A7075",
"Y 	c #9A9697",
"Z 	c #7F8180",
"` 	c #5A5A5A",
" .	c #464646",
"..	c #595959",
"+.	c #828584",
"@.	c #8D7B7D",
"#.	c #88464F",
"$.	c #761E2A",
"%.	c #732530",
"&.	c #D31F2E",
"*.	c #EB1D2E",
"=.	c #771F2B",
"-.	c #966067",
";.	c #9B9394",
">.	c #7E7F7F",
",.	c #6A6A6A",
"'.	c #808080",
").	c #878081",
"!.	c #86474F",
"~.	c #761F2B",
"{.	c #822530",
"].	c #EE1D2E",
"^.	c #B6212F",
"/.	c #97656C",
"(.	c #919292",
"_.	c #616161",
":.	c #777777",
"<.	c #828585",
"[.	c #876065",
"}.	c #7A222E",
"|.	c #AE212F",
"1.	c #F01D2E",
"2.	c #792430",
"3.	c #7F2E39",
"4.	c #9A8487",
"5.	c #808282",
"6.	c #7D7D7D",
"7.	c #827F7F",
"8.	c #823F48",
"9.	c #752530",
"0.	c #DD1E2E",
"a.	c #C2202F",
"b.	c #772530",
"c.	c #95646A",
"d.	c #888B8A",
"e.	c #747474",
"f.	c #7F7F7F",
"g.	c #817778",
"h.	c #7C2C36",
"i.	c #8C2430",
"j.	c #F41C2E",
"k.	c #872430",
"l.	c #8A464F",
"m.	c #8A8A8A",
"n.	c #767575",
"o.	c #515151",
"p.	c #807072",
"q.	c #7B2630",
"r.	c #BF202F",
"s.	c #D41F2F",
"t.	c #742530",
"u.	c #833741",
"v.	c #8C8989",
"w.	c #7E6F71",
"x.	c #7A2430",
"y.	c #932330",
"z.	c #82343F",
"A.	c #898687",
"B.	c #80797A",
"C.	c #C1202F",
"D.	c #AA2130",
"E.	c #853E47",
"F.	c #878989",
"G.	c #828382",
"H.	c #7B2D37",
"I.	c #9F2230",
"J.	c #8B5058",
"K.	c #808483",
"L.	c #5D5D5D",
"M.	c #7B4047",
"N.	c #7E2530",
"O.	c #7A2530",
"P.	c #9D2330",
"Q.	c #7F2530",
"R.	c #8E6D71",
"S.	c #7C6164",
"T.	c #79222E",
"U.	c #F81C2E",
"V.	c #E11E2F",
"W.	c #7F2430",
"X.	c #722530",
"Y.	c #9D232F",
"Z.	c #C7202F",
"`.	c #762530",
" +	c #79232E",
".+	c #8A8384",
"++	c #6F6F6F",
"@+	c #828282",
"#+	c #7A2732",
"$+	c #BA212F",
"%+	c #9B2330",
"&+	c #7C2530",
"*+	c #802430",
"=+	c #972330",
"-+	c #B0212F",
";+	c #D91E2E",
">+	c #EA1D2E",
",+	c #87464F",
"'+	c #7E8181",
")+	c #794B51",
"!+	c #E61E2E",
"~+	c #F11D2E",
"{+	c #E51D2E",
"]+	c #8A7477",
"^+	c #656565",
"/+	c #817E7E",
"(+	c #C4202F",
"_+	c #E61D2E",
":+	c #C6202F",
"<+	c #A52230",
"[+	c #9E2330",
"}+	c #833A43",
"|+	c #7F8282",
"1+	c #585858",
"2+	c #7D7E7E",
"3+	c #7A4C52",
"4+	c #F11C2E",
"5+	c #CE1F2F",
"6+	c #897476",
"7+	c #892430",
"8+	c #85474F",
"9+	c #797C7B",
"0+	c #7D6366",
"a+	c #79232F",
"b+	c #A7222F",
"c+	c #78202C",
"d+	c #878384",
"e+	c #7E8080",
"f+	c #793D45",
"g+	c #96212D",
"h+	c #A1212E",
"i+	c #AC2230",
"j+	c #B3212F",
"k+	c #E31E2E",
"l+	c #E81D2E",
"m+	c #78242F",
"n+	c #866267",
"o+	c #AE1D2B",
"p+	c #F44250",
"q+	c #F9A7AD",
"r+	c #F6949B",
"s+	c #EB1E2F",
"t+	c #94232F",
"u+	c #85454D",
"v+	c #767979",
"w+	c #806F71",
"x+	c #F23644",
"y+	c #F7A9AF",
"z+	c #F5979E",
"A+	c #F5969D",
"B+	c #EB2B3A",
"C+	c #7B2530",
"D+	c #838686",
"E+	c #7D585D",
"F+	c #8D2430",
"G+	c #C9202E",
"H+	c #BB202F",
"I+	c #BC202F",
"J+	c #EA1B2C",
"K+	c #EA1C2D",
"L+	c #EF1D2E",
"M+	c #887B7D",
"N+	c #5F5F5F",
"O+	c #7B7C7C",
"P+	c #764047",
"Q+	c #9A2330",
"R+	c #F21C2E",
"S+	c #816165",
"T+	c #79353D",
"U+	c #E01E2E",
"V+	c #B1212F",
"W+	c #A9222F",
"X+	c #D21F2F",
"Y+	c #E91D2E",
"Z+	c #85585D",
"`+	c #666666",
" @	c #7F8382",
".@	c #782934",
"+@	c #F31C2E",
"@@	c #AC222F",
"#@	c #952330",
"$@	c #7F4850",
"%@	c #737575",
"&@	c #818686",
"*@	c #732630",
"=@	c #722630",
"-@	c #8A2430",
";@	c #7F424A",
">@	c #777979",
",@	c #838988",
"'@	c #78202B",
")@	c #CC1F2F",
"!@	c #DF1E2E",
"~@	c #842530",
"{@	c #83434B",
"]@	c #777A79",
"^@	c #838887",
"/@	c #BD212F",
"(@	c #852430",
"_@	c #9C232F",
":@	c #9E232F",
"<@	c #902330",
"[@	c #808584",
"}@	c #A72230",
"|@	c #912330",
"1@	c #A0232F",
"2@	c #812530",
"3@	c #982330",
"4@	c #99232F",
"5@	c #942330",
"6@	c #98232F",
"7@	c #9B232F",
"8@	c #842430",
"9@	c #9A232F",
"0@	c #922430",
"a@	c #902430",
"b@	c #882430",
"c@	c #832530",
"d@	c #8F2430",
"e@	c #7E8281",
"f@	c #AD212F",
"g@	c #862430",
"h@	c #A12330",
"i@	c #97232F",
"j@	c #B3222F",
"k@	c #B4212F",
"l@	c #95232F",
"m@	c #712530",
"n@	c #A3232F",
"o@	c #6E2630",
"p@	c #962430",
"q@	c #942430",
"r@	c #9C2230",
"s@	c #8B2430",
"t@	c #7E4950",
"u@	c #717272",
"v@	c #7C7F7F",
"w@	c #CD1F2F",
"x@	c #9F222F",
"y@	c #802530",
"z@	c #912430",
"A@	c #99242F",
"B@	c #A1222F",
"C@	c #A3222F",
"D@	c #B5222F",
"E@	c #992330",
"F@	c #85585E",
"G@	c #787A79",
"H@	c #774048",
"I@	c #E41E2E",
"J@	c #AA222F",
"K@	c #9C2330",
"L@	c #952430",
"M@	c #A6222F",
"N@	c #816166",
"O@	c #686868",
"P@	c #932430",
"Q@	c #887A7C",
"R@	c #7F8281",
"S@	c #7A242F",
"T@	c #96232F",
"U@	c #CE202E",
"V@	c #B2212F",
"W@	c #922330",
"X@	c #A02330",
"Y@	c #737676",
"Z@	c #7A7C7C",
"`@	c #AB222F",
" #	c #876368",
".#	c #7E6367",
"+#	c #C3202F",
"@#	c #E11E2E",
"##	c #A2232F",
"$#	c #972430",
"%#	c #878383",
"&#	c #808382",
"*#	c #E71D2E",
"=#	c #747777",
"-#	c #7B4D53",
";#	c #7F7C7C",
">#	c #7A232E",
",#	c #833A44",
"'#	c #7A7E7D",
")#	c #787979",
"!#	c #7A4B51",
"~#	c #CA1F2F",
"{#	c #8B7478",
"]#	c #B7212F",
"^#	c #88474F",
"/#	c #797D7C",
"(#	c #7D6165",
"_#	c #79222D",
":#	c #898384",
"<#	c #7C7F7E",
"[#	c #7B4048",
"}#	c #C0202F",
"|#	c #832430",
"1#	c #906F73",
"2#	c #808180",
"3#	c #D51E2E",
"4#	c #7B7E7E",
"5#	c #7F7879",
"6#	c #863E47",
"7#	c #868787",
"8#	c #AB212F",
"9#	c #82343E",
"0#	c #888586",
"a#	c #807173",
"b#	c #BA2130",
"c#	c #833641",
"d#	c #8D8A8A",
"e#	c #937679",
"f#	c #9A2B37",
"g#	c #8A4650",
"h#	c #8A8989",
"i#	c #717070",
"j#	c #807E7E",
"k#	c #95646B",
"l#	c #858887",
"m#	c #7E8180",
"n#	c #886267",
"o#	c #7F2D38",
"p#	c #9B8688",
"q#	c #787A7A",
"r#	c #767776",
"s#	c #888182",
"t#	c #874851",
"u#	c #98666D",
"v#	c #919291",
"w#	c #8E7C7F",
"x#	c #894750",
"y#	c #9C9495",
"z#	c #757777",
"A#	c #918486",
"B#	c #915D64",
"C#	c #7C2933",
"D#	c #83353F",
"E#	c #9B7177",
"F#	c #9A9797",
"G#	c #767777",
"H#	c #757676",
"I#	c #8C908F",
"J#	c #948082",
"K#	c #78222E",
"L#	c #7A2531",
"M#	c #915159",
"N#	c #9E9192",
"O#	c #8E9292",
"P#	c #707171",
"Q#	c #999C9C",
"R#	c #908587",
"S#	c #998285",
"T#	c #927276",
"U#	c #926B70",
"V#	c #986E74",
"W#	c #997075",
"X#	c #946E73",
"Y#	c #958E8F",
"Z#	c #9BA09F",
"`#	c #838383",
"                                                        . + + @ @ + # .                                                         ",
"                                              + $ % & * = - ; > ; , - ' ' , ) ! ~                                               ",
"                                        + { & = ] ^ / ( _ : < < < < _ ( [ } | 1 ' , 2 3                                         ",
"                                    4 5 ' 6 } : 7 8 9 0 a b c d e f g h i j k l ( m % ' n .                                     ",
"                                4 ; & o : p q r s t u v w x y z A B C D E F G H I J 7 K { = % @                                 ",
"                              L = $ 7 M N O P u Q Q Q Q Q Q Q Q R S T U Q Q Q y V W X Y Z [ `  .{                               ",
"                          m * .._ +.@.#.$.Q Q Q Q Q Q Q Q Q Q Q %.&.*.Q Q Q Q Q Q Q y =.-.;.>.3 1 , 4                           ",
"                        ` ' ,.'.).!.~.Q Q Q Q Q Q Q Q Q Q Q Q Q Q {.].^.U Q Q Q Q Q Q Q Q v /.(.l ^  ._.                        ",
"                      1 5 :.<.[.}.Q Q Q Q Q Q Q Q Q Q Q Q Q Q Q Q U |.1.z Q Q Q Q Q Q Q Q Q 2.3.4.5.} = ..                      ",
"                    > L 6.7.8.x Q Q Q Q Q Q Q Q Q Q Q Q Q Q Q Q Q Q 9.0.a.b.Q Q Q Q Q Q Q Q Q Q $.c.d.e., )                     ",
"                  > L f.g.h.Q Q Q Q Q Q Q Q Q Q Q Q Q Q Q Q Q Q Q Q Q i.j.k.Q Q Q Q Q Q Q Q Q Q Q x l.m.n., )                   ",
"                o.L f.p.q.Q Q Q Q Q Q Q Q Q Q Q Q Q Q Q Q Q Q Q Q Q Q b.r.s.t.Q Q Q Q Q Q Q Q Q Q Q Q u.v.n., `                 ",
"              ` 1 < w.x.Q Q Q Q Q Q Q Q Q Q Q Q Q Q Q Q Q Q Q Q Q Q Q Q Q A y.Q Q Q Q Q Q Q Q Q Q Q Q Q z.A.3 ' _.              ",
"            m = :.B.F Q Q Q Q Q Q Q Q Q Q Q Q Q Q Q Q Q Q Q Q Q Q Q Q Q U C.D.Q Q Q Q Q Q Q Q Q Q Q Q Q Q E.F.. * ,.            ",
"            * . G.H.Q Q Q Q Q Q Q Q Q Q Q Q Q Q Q Q Q Q Q Q Q Q Q Q Q Q %.0.I.Q Q Q Q Q Q Q Q Q Q Q Q Q Q y J.K.L.; (           ",
"          ) ` +.M.Q Q Q Q Q Q Q Q Q Q Q Q Q Q Q Q U z N.O.9.Q Q Q Q Q Q P.j.Q.Q Q Q Q Q Q Q Q Q Q Q Q Q Q Q w R.( > L.          ",
"        4 - 7 S.T.Q Q Q Q Q Q Q Q Q Q Q Q Q Q Q Q y.j.j.U.V.W.Q Q Q X.Y.A Z.`.Q Q Q Q Q Q Q Q Q Q Q Q Q Q Q Q  +.+/ ' ++        ",
"        , ! @+#+Q Q Q Q Q Q Q Q Q Q Q Q Q Q Q Q Q i.$+%+&+t.%.*+=+-+;+S >+Q.Q Q Q Q Q Q Q Q Q Q Q Q Q Q Q Q Q Q ,+'+) )         ",
"      m , >.)+Q Q Q Q Q Q Q Q Q Q Q Q Q Q Q Q Q Q Q U Q 9.|.!+~+S A A {+k.Q Q Q Q Q Q Q Q Q Q Q Q Q Q Q Q Q Q Q u ]+~ * ++      ",
"      > ^+/+ +Q Q Q Q Q Q Q Q Q Q Q Q Q Q Q Q Q Q Q Q `.(+A _+:+T <+[+9.Q Q Q Q Q Q Q Q Q Q Q Q Q Q Q Q Q Q Q Q Q }+|+) 1+      ",
"    ~ ' 2+3+Q Q Q Q Q Q Q Q Q Q Q Q Q Q Q Q Q Q Q Q Q z 4+5+%.b.Q Q Q Q Q Q Q Q Q Q Q Q Q Q Q Q Q Q Q Q Q Q Q Q Q w 6+/ ' :.    ",
"    ` ` <.Q Q Q Q Q Q Q Q Q Q Q Q Q Q Q Q Q Q Q Q Q Q 7+4+%+Q Q Q Q Q Q Q Q Q Q Q Q Q Q Q Q Q Q Q Q Q Q Q Q Q Q Q Q 8+9+, o     ",
"    - / 0+a+Q Q Q Q Q Q Q Q Q Q Q Q Q Q Q Q Q Q Q Q Q `.1.b+Q Q Q Q Q Q Q Q Q Q Q Q Q Q Q Q Q Q Q Q Q Q Q Q Q Q Q Q c+d+2 %     ",
"  ++& e+f+Q Q Q Q Q Q Q Q Q Q Q Q Q Q Q Q Q U &+g+h+i+j+k+l+U Q Q Q Q Q Q Q Q Q Q Q Q Q Q Q Q Q Q Q Q Q Q Q Q Q Q Q m+n++ = e.  ",
"  ^ ) K.y Q Q Q Q Q Q Q Q Q Q Q Q Q Q Q Q `.o+p+q+r+s+>+>+S t+Q Q Q Q Q Q Q Q Q Q Q Q Q Q Q Q Q Q Q Q Q Q Q Q Q Q Q Q u+v+- ,.  ",
"  o.^+w+T.Q Q Q Q Q Q Q Q Q Q Q U `.U Q U i.x+y+z+A+B+>+>+A O.Q Q Q Q Q Q Q Q Q Q Q Q Q Q Q Q Q Q Q Q Q Q Q Q Q Q Q Q C+D+] |   ",
"  & # E+2.Q Q Q Q Q Q Q Q Q b.F+r.G+H+b+I+;+>+J+K+K+>+>+L+P.Q Q Q Q Q Q Q Q Q Q Q Q Q Q Q Q Q Q Q Q Q Q Q Q Q Q Q Q Q c+M+N+]   ",
"  = O+P+Q Q Q Q Q Q Q Q Q Q Q+R+A *.>+*.>+>+>+>+>+>+>+L+b+b.Q Q Q Q Q Q Q Q Q Q Q Q Q Q Q Q Q Q Q Q Q Q Q Q Q Q Q Q Q x S+. ,   ",
"++= '+T+Q Q Q Q Q Q Q Q Q t.U+V+%+W+X+].>+>+>+>+>+>+Y+y.b.Q Q Q Q Q Q Q Q Q Q Q Q Q Q Q Q Q Q Q Q Q Q Q Q Q Q Q Q Q Q Q Z+/ = # ",
"`+,  @.@Q Q Q Q Q Q Q Q Q b.+@@@Q Q t.#@(+*.L+L+Y+^.U Q Q Q Q Q Q Q Q Q Q Q Q Q Q Q Q Q Q Q Q Q Q Q Q Q Q Q Q Q Q Q Q Q $@%@' l ",
"/ 5 &@x Q Q Q Q Q Q Q Q Q *@1.>+9.Q Q Q b.=@-@-@%.U Q Q Q Q Q Q Q Q Q Q Q Q Q Q Q Q Q Q Q Q Q Q Q Q Q Q Q Q Q Q Q Q Q Q ;@>@' :.",
"/ 1 ,@'@Q Q Q Q Q Q Q Q Q `.)@>+!@~@b.Q Q Q Q Q Q Q b.`.b.Q Q Q Q Q Q Q Q Q Q b.Q Q Q Q Q Q Q Q Q Q U Q Q Q Q Q Q Q Q Q {@]@' # ",
"/ 5 ^@'@Q Q Q Q Q Q Q Q Q Q =+L+>+~+/@`.Q Q Q Q Q (@_@#@:@~@Q Q Q Q Q Q Q Q -@%+b.Q Q Q Q Q Q Q Q Q <@&+Q Q Q Q Q Q Q Q {@>@' ~ ",
"++> [@x Q Q Q Q Q Q Q Q Q Q b.}@L+>+>+{+|@b.Q Q t.1@b.Q `.N.2@3@3@t.i.4@5@t.:@`.F+6@-@`.7@_@C+8@9@0@2@Q a@6@b@c@d@6@(@Q ;@>@= :.",
"m & e@.@Q Q Q Q Q Q Q Q Q Q Q b.R S >+>+1.f@`.Q g@d@Q Q Q `.h@t.U i@j@t.b@a@k@l@(@m@#@n@b.o@p@b+o@a@p@q@8@9.4@r@s@9.P.`.t@u@' _ ",
"+ = v@T+Q Q Q Q Q Q Q Q Q Q Q Q 9.w@>+>+>+].x@Q O.6@Q Q Q Q t+Q b.0@Q+Q y@z@Y.r@A@:@Y.~@B@x@-@k.C@1@q@C@t.Q O.D@Q Q E@`.F@} - # ",
"  ' G@H@Q Q Q Q Q Q Q Q Q Q Q Q Q _@A >+>+>+I@X.U P.i.b.=+8@b+U -@d@P.Q y@0@:@8@=+9.R 4@8@`._@J@9.K@%+s@L@`.M@=+Q Q Q+C N@O@;   ",
"  , / E+2.Q Q Q Q Q Q Q Q Q Q Q Q 9.*.>+>+>+1.y@Q b.8@P@N.Q b.P@k.b.z Q C+9@y.9.2@q@C+b.#@P@b.O.l@g@z O.2@P@O.z Q Q z u Q@| L   ",
"  ] N+w+T.Q Q Q Q Q Q Q Q Q Q Q Q U I+>+>+>+L+%.Q Q Q Q Q Q Q Q Q Q Q F+E@`.Q.%+U `.`.U b@b.`.`.Q Q Q Q Q Q Q Q Q Q Q C+M 1 ^   ",
"  $ o.R@S@Q Q Q Q Q Q Q Q Q Q Q 9.T@U@*.>+S V@U Q Q Q Q Q Q Q Q Q Q `.Q+U Q Q U -@E@#@W@Q+X@E@E@i.Q Q Q Q Q Q Q Q Q Q u+Y@' @   ",
"  # ' Z@f+Q Q Q Q Q Q Q Q Q Q t.(+].A 1.Y+`@t.Q Q Q Q Q Q Q Q Q Q Q 9.Q+Q Q Q `.:@U Q E@9@Q+9.9._@Q Q Q Q Q Q Q Q Q m+ #,.- [   ",
"    , 4 .#a+Q Q Q Q Q Q Q Q 9.+#*.@#E@Q.X.Q Q Q Q Q Q Q Q Q Q Q Q Q U ##%.Q b.z :@b.Q 4@%+$#`.`.7@Q Q Q Q Q Q Q Q Q '@%#6 6     ",
"    2 ] &#Q Q Q Q Q Q Q Q Q J@S *#Q Q Q Q Q Q Q Q Q Q Q Q Q Q Q Q Q Q U X@P@p@F+k.=+#@d@L@d@b.`.0@Q Q Q Q Q Q Q Q Q !.=#= O@    ",
"    e.* :.-#Q Q Q Q Q Q Q t.s.*.M@Q Q Q Q Q Q Q Q Q Q Q Q Q Q Q Q Q Q Q U `.b.Q Q `.`.Q U U Q Q N.U Q Q Q Q Q Q Q w ]+`+, l     ",
"      n | ;#>#Q Q Q Q Q Q b@1.].`.Q Q Q Q Q Q Q Q Q Q Q Q Q Q Q Q Q Q Q Q Q Q Q Q Q Q Q Q Q Q Q U Q Q Q Q Q Q Q Q ,#'#> ^       ",
"      } ' )#!#Q Q Q Q Q Q V@>+~#`.Q Q Q Q Q Q Q Q Q Q Q Q Q Q Q Q Q Q Q Q Q Q Q Q Q Q Q Q Q Q Q Q Q Q Q Q Q Q Q D {#O@= 3       ",
"        o.` '.#+Q Q Q Q 9.&.>+]#Q Q Q Q Q Q Q Q Q Q Q Q Q Q Q Q Q Q Q Q Q Q Q Q Q Q Q Q Q Q Q Q Q Q Q Q Q Q Q Q ^#/#; N+        ",
"        } * 3 (#_#Q Q Q `.5+*.|.Q Q Q Q Q Q Q Q Q Q Q Q Q Q Q Q Q Q Q Q Q Q Q Q Q Q Q Q Q Q Q Q Q Q Q Q Q Q Q  +:#! - 3         ",
"          { 1 <#[#Q Q Q U }#1.|#Q Q Q Q Q Q Q Q Q Q Q Q Q Q Q Q Q Q Q Q Q Q Q Q Q Q Q Q Q Q Q Q Q Q Q Q Q Q w 1#++' `+          ",
"            - ^ 2#H.Q Q 9.3#S t.Q Q Q Q Q Q Q Q Q Q Q Q Q Q Q Q Q Q Q Q Q Q Q Q Q Q Q Q Q Q Q Q Q Q Q Q Q y J.4#% L l           ",
"            . * . 5##+Q %.>+;+t.Q Q Q Q Q Q Q Q Q Q Q Q Q Q Q Q Q Q Q Q Q Q Q Q Q Q Q Q Q Q Q Q Q Q Q Q Q 6#7#L.& +             ",
"              $ ' 3 w.x.b@1.8#Q Q Q Q Q Q Q Q Q Q Q Q Q Q Q Q Q Q Q Q Q Q Q Q Q Q Q Q Q Q Q Q Q Q Q Q Q 9#0#`+* ,.              ",
"                { & K a#b#l+b.Q Q Q Q Q Q Q Q Q Q Q Q Q Q Q Q Q Q Q Q Q Q Q Q Q Q Q Q Q Q Q Q Q Q Q Q c#d#O@* ^+                ",
"                  6 & e.e#f#Q Q Q Q Q Q Q Q Q Q Q Q Q Q Q Q Q Q Q Q Q Q Q Q Q Q Q Q Q Q Q Q Q Q Q x g#h#O@* $                   ",
"                    1+- i#j#8.x Q Q Q Q Q Q Q Q Q Q Q Q Q Q Q Q Q Q Q Q Q Q Q Q Q Q Q Q Q Q Q Q $.k#l#! * $                     ",
"                      L.* m m#n#T.Q Q Q Q Q Q Q Q Q Q Q Q Q Q Q Q Q Q Q Q Q Q Q Q Q Q Q Q Q Q o#p#q#| * `+                      ",
"                        ^+' ` r#s#t#v Q Q Q Q Q Q Q Q Q Q Q Q Q Q Q Q Q Q Q Q Q Q Q Q Q Q v u#v#@ 1 , }                         ",
"                          / 5 & ,.<#w#x#$.Q Q Q Q Q Q Q Q Q Q Q Q Q Q Q Q Q Q Q Q Q y v -.y#z#_.* 1+#                           ",
"                              _.= o.} v@A#B#C#u Q Q Q Q Q Q Q Q Q Q Q Q Q Q Q y V D#E#F#G#! & , 4 _                             ",
"                                # ` * o.4 H#I#J#s t u v w x y Q Q m+K#D E L#M#H N#O#P#$ & - $ K                                 ",
"                                    # L.- - ..,.~ |+Q#R#S#T#U#V#W#X#g h Y#Z#e+/ ^+n ' > o K                                     ",
"                                        l m 6 - ' > ..^+4 @ # # + + } m _.L , ' ; | } :                                         ",
"                                              :./ _.1+5 & = ' ' ' ' - , o.{ ^++ l                                               ",
"                                                        ~ 7 _ K K _ 7 3 `#                                                      "};
